<svg width="177" height="59" viewBox="0 0 177 59" fill="none" xmlns="http://www.w3.org/2000/svg">
<path d="M35.01 0.317518C34.2407 0.32544 33.516 0.679882 33.0196 1.29669L0.355225 41.7666L1.84485 42.9691L3.33648 44.1731L35.0501 4.8738L68.0118 44.199L70.9454 41.7389L37.0172 1.26023C36.5103 0.65282 35.7725 0.315043 35.01 0.317518Z" fill="#2D343E"/>
<path d="M34.5022 33.2968C34.6825 33.2361 34.9113 32.9401 34.9231 32.7524C35.1876 28.224 31.4483 22.1872 30.1017 20.1717C29.0177 20.6038 27.9628 21.3022 26.989 22.3666C26.989 22.3666 25.0442 23.6717 24.3542 30.013C27.9918 34.7238 32.5116 33.9535 34.5022 33.2968Z" fill="#2D343E"/>
<path d="M48.928 25.259L42.9688 23.8045C42.9688 23.8045 42.799 22.3667 41.1091 21.7759C39.8774 21.3443 35.6336 18.9052 31.458 19.7667C33.0367 22.1696 36.5485 28.0927 36.2708 32.8303C36.2295 33.5752 35.6373 34.3448 34.9254 34.5801C34.2411 34.8078 33.0129 35.1231 31.5202 35.1231C29.3575 35.1231 26.6412 34.4579 24.194 31.9009C24.146 32.7134 24.1186 33.5924 24.1138 34.5433C24.0863 39.4484 17.8557 44.0991 17.8557 44.0991L17.0259 45.8189C18.7196 49.4862 21.3748 52.6208 24.6712 54.8956C24.8207 52.5529 25.4081 50.7178 26.0885 49.3386C27.3771 46.7192 29.1843 45.2654 30.1065 44.6502C30.3049 39.2438 32.0596 37.6638 33.5236 37.3025C33.9733 37.1911 34.4473 37.2871 34.8202 37.567C35.2446 37.8838 35.5176 38.4066 35.5453 38.9678C35.6205 40.421 36.4795 41.4412 36.8867 41.8463C37.5472 41.9078 38.1776 42.0124 38.7711 42.1563L38.8256 41.6465L39.2792 37.2418C39.3562 36.4984 40.0243 35.8717 40.7639 35.7658C43.5725 35.3567 49.8301 33.693 50.2367 26.9326C50.2835 26.187 49.6538 25.4371 48.928 25.259ZM39.6437 26.8294C39.2232 26.8294 38.8818 26.4895 38.8818 26.0686C38.8818 25.6477 39.2232 25.3078 39.6437 25.3078C40.065 25.3078 40.4048 25.6477 40.4048 26.0686C40.4032 26.4887 40.0643 26.8294 39.6437 26.8294Z" fill="#2D343E"/>
<path d="M42.9705 46.9582C42.7452 45.0416 40.0398 43.4623 36.5438 43.2379C36.5438 43.2379 34.6876 41.8109 34.563 39.3477C34.5426 38.9748 34.2638 38.6042 33.9018 38.6935C32.9677 38.9233 31.3815 40.1226 31.3025 45.5998C31.3025 45.5998 26.2216 48.1631 25.8545 55.553C29.1114 57.5098 32.9066 58.6576 36.9576 58.7244L36.9122 57.6657C36.8954 57.2928 37.166 56.8839 37.515 56.7532L41.8427 55.1302C41.8427 55.1302 43.8723 55.244 44.7165 53.7203C45.144 52.9522 45.5406 52.4155 45.8328 52.0697C46.0719 51.7852 46.0681 51.3785 45.8006 51.1185C44.9164 50.2651 43.1389 48.3905 42.9705 46.9582ZM40.4033 48.8134C39.9836 48.8134 39.6429 48.4744 39.6429 48.0532C39.6429 47.6311 39.9836 47.2913 40.4033 47.2913C40.8245 47.2913 41.1652 47.6311 41.1652 48.0532C41.1653 48.4742 40.8247 48.8134 40.4033 48.8134Z" fill="#2D343E"/>
<path d="M102.508 9.05818C101.744 9.03141 100.827 9.39972 99.7552 10.1629C98.6969 10.9127 97.585 11.9305 96.4195 13.2158C95.2541 14.5012 94.0149 16.0271 92.7021 17.7945C91.4027 19.5485 90.1371 21.3761 88.9047 23.2773C87.6723 25.1652 86.4528 27.14 85.2472 29.2019C82.9833 29.309 81.597 29.0952 81.088 28.5597C80.9004 28.3588 80.8471 28.0908 80.9274 27.7561C80.981 27.5687 80.9005 27.4478 80.6862 27.3943C80.4987 27.3407 80.378 27.4213 80.3244 27.6355C80.2038 28.1711 80.304 28.6199 80.6255 28.9814C81.148 29.5572 82.3206 29.8449 84.1425 29.8449H84.8654C81.2217 36.1512 78.8311 41.038 77.6924 44.5058C77.6254 44.6799 77.692 44.8073 77.8929 44.8876C78.0805 44.9546 78.2143 44.8872 78.2947 44.6864C79.5271 40.9641 81.9588 36.0042 85.589 29.805C86.8081 29.7246 89.018 29.4698 92.2196 29.0414C95.7025 28.5594 98.1071 28.3185 99.4333 28.3185L98.831 30.2467C97.0494 36.0041 95.8438 40.2348 95.2142 42.9394C94.598 45.644 94.5577 47.3581 95.0936 48.0812C95.2945 48.3489 95.5688 48.4822 95.9171 48.4822C96.3458 48.4822 96.8081 48.3885 97.3038 48.201H97.3237H97.3437L97.3637 48.181H97.3837C98.2544 47.8463 99.1791 47.2239 100.157 46.3134C101.148 45.403 102.019 44.4723 102.769 43.5217C103.39 42.7233 104.006 41.856 104.618 40.9474C104.565 41.1786 104.516 41.4083 104.477 41.6342C104.209 43.2676 104.544 44.292 105.482 44.7071C106.393 45.1088 107.598 44.7939 109.098 43.7629C109.112 43.7629 109.118 43.7564 109.118 43.743C109.118 43.7296 109.126 43.723 109.139 43.723C109.153 43.7096 109.166 43.7022 109.179 43.7022C109.192 43.7022 109.199 43.6957 109.199 43.6823H109.219C110.853 42.5308 112.589 40.75 114.424 38.34C114.598 38.1124 114.872 37.758 115.247 37.276C113.72 43.9438 113.68 47.6122 115.127 48.2817C115.287 48.362 115.475 48.4023 115.689 48.4023C116.319 48.4023 117.109 47.9871 118.061 47.157C118.074 47.157 118.081 47.1438 118.081 47.117L118.101 47.097C119.464 45.9112 121.205 43.8523 123.305 40.9604C123.26 41.4449 123.238 41.9431 123.245 42.4577C123.258 43.2878 123.486 43.9973 123.928 44.5865C124.356 45.1622 124.939 45.5437 125.676 45.7311C125.971 45.7981 126.259 45.8318 126.54 45.8318C128.175 45.8318 129.835 45.008 131.523 43.3611C131.898 43.4281 132.246 43.4618 132.568 43.4618C133.64 43.4618 134.691 43.1872 135.723 42.6382C136.901 42.0265 137.98 41.0924 138.962 39.8388C138.291 43.7464 138.311 46.2972 139.039 47.4581C139.333 47.9267 139.722 48.161 140.204 48.161H140.244C140.445 48.161 140.7 48.1142 141.008 48.0204C141.061 48.0204 141.101 48.0139 141.128 48.0005C141.557 47.8264 142.139 47.1506 142.876 45.9723C143.188 45.4818 143.489 44.9795 143.783 44.4704C143.703 45.9582 143.98 46.9852 144.624 47.5388C145.254 48.0743 145.984 48.3818 146.815 48.4622H146.835H146.895C146.936 48.4755 146.962 48.4821 146.975 48.4821H147.036H147.176C150.095 48.4821 154.418 45.3434 160.138 39.0844C160.111 39.1554 160.059 39.2845 160.036 39.3441C159.982 39.5047 159.943 39.6321 159.916 39.7259H159.895C159.426 41.0916 159.179 42.4711 159.152 43.8636C159.126 45.256 159.393 46.4276 159.956 47.3782C160.438 48.0879 161.108 48.4422 161.965 48.4422C162.313 48.4422 162.709 48.3148 163.151 48.0604C163.205 48.0336 163.245 48.0073 163.272 47.9805C164.852 46.9763 166.882 44.5124 169.36 40.5894C169.494 40.3751 169.668 40.0874 169.882 39.7259C170.11 39.3644 170.257 39.1301 170.324 39.0229C170.994 37.8849 171.429 37.1285 171.63 36.7536C171.737 36.5795 171.698 36.4389 171.51 36.3318C171.403 36.2649 171.295 36.2715 171.188 36.3518C171.148 36.3786 171.114 36.4123 171.088 36.4524C170.686 37.1888 170.237 37.9584 169.742 38.7617V38.7817C168.59 40.6964 167.397 42.4771 166.165 44.124C164.932 45.7708 163.867 46.8824 162.97 47.4581C162.488 47.4983 162.139 47.3577 161.925 47.0363C161.403 46.2598 161.49 44.6665 162.186 42.2564C162.896 39.8464 163.941 37.2558 165.321 34.4842C165.468 34.2031 165.649 33.8413 165.864 33.3995C166.091 32.9443 166.245 32.6294 166.325 32.4553C166.741 31.6252 167.022 31.0497 167.17 30.7284C167.33 30.3936 167.458 30.0524 167.551 29.7043C167.645 29.3562 167.652 29.1087 167.571 28.9614C167.491 28.8142 167.337 28.6531 167.109 28.479C166.881 28.2915 166.594 28.2381 166.246 28.3184C164.919 28.6799 163.124 31.6593 160.86 37.256C160.857 37.2646 160.799 37.4086 160.787 37.4396C154.517 44.5084 149.931 47.9873 147.036 47.8599H146.975H146.935C146.922 47.8599 146.909 47.8533 146.895 47.8399H146.875C146.741 47.8131 146.634 47.7062 146.554 47.5188C146.232 46.8493 146.272 45.7173 146.674 44.124C147.089 42.5307 147.853 40.8107 148.965 38.963C149.447 38.8023 149.929 38.6215 150.412 38.4206C153.305 37.229 155.649 35.81 157.444 34.1631C159.252 32.5029 160.23 31.0501 160.378 29.8049C160.405 29.6711 160.405 29.5502 160.378 29.4431V29.4032V29.3225C160.378 29.3091 160.371 29.2959 160.358 29.2826V29.2626V29.2426C160.291 28.8141 160.096 28.4927 159.775 28.2785C158.783 27.5822 156.968 27.8766 154.33 29.1619C151.356 30.6214 148.878 32.8641 146.895 35.8901C146.788 36.0508 146.64 36.2917 146.453 36.613C146.426 36.6666 146.279 36.9206 146.011 37.3758L145.649 38.0388C145.489 38.3602 145.287 38.8024 145.046 39.3648C145.033 39.3782 145.026 39.398 145.026 39.4247C145.026 39.4381 145.02 39.4513 145.006 39.4647C144.966 39.5048 144.946 39.5583 144.946 39.6252C144.892 39.7457 144.825 39.9266 144.745 40.1676C144.732 40.2345 144.705 40.3283 144.664 40.4488C144.611 40.5693 144.571 40.6564 144.544 40.71C144.45 40.9777 144.397 41.152 144.383 41.2324C144.303 41.4734 144.249 41.6542 144.223 41.7747L144.162 42.0152C144.135 42.1089 144.115 42.1829 144.102 42.2364C144.098 42.2491 144.094 42.287 144.09 42.3063C143.674 43.1199 143.24 43.9335 142.776 44.747C142.227 45.711 141.737 46.4271 141.309 46.8957C140.88 47.3778 140.552 47.5249 140.325 47.3375C139.655 46.6145 140.043 43.0464 141.49 36.633C142.374 32.6832 143.586 28.6736 145.127 24.6033C145.931 24.4292 147.163 24.1407 148.824 23.739C148.851 23.7256 148.898 23.7125 148.965 23.6991C150.318 23.3777 151.604 23.0834 152.823 22.8156C154.055 22.5344 155.314 22.273 156.6 22.032C157.886 21.791 159.065 21.6241 160.137 21.5304C161.222 21.4232 162.22 21.3895 163.131 21.4297C164.055 21.4565 164.832 21.6102 165.462 21.8914C166.105 22.1726 166.56 22.568 166.828 23.0768C166.922 23.2642 167.062 23.3111 167.25 23.2174C167.437 23.1103 167.485 22.9697 167.391 22.7956C167.364 22.7421 167.33 22.6813 167.29 22.6143C166.299 21.0076 163.646 20.4658 159.333 20.988C157.203 21.2424 153.646 21.9585 148.663 23.1367C147.377 23.4447 146.286 23.6995 145.388 23.9003C146.513 21.0083 147.679 18.3972 148.884 16.0675C149.032 15.8265 149.019 15.5716 148.844 15.3039C148.697 15.0495 148.476 14.9228 148.181 14.9228C147.512 14.9228 147.035 15.2303 146.754 15.8462C145.562 18.4169 144.396 21.2558 143.258 24.362C138.516 25.3395 135.589 25.4529 134.477 24.7031C134.129 24.4621 133.928 24.1341 133.875 23.719C133.861 23.6387 133.821 23.5721 133.754 23.5185C133.674 23.465 133.593 23.4444 133.513 23.4578C133.312 23.4846 133.225 23.5989 133.252 23.7997C133.332 24.3888 133.627 24.8574 134.136 25.2056C134.765 25.634 135.73 25.8478 137.029 25.8478C138.422 25.8478 140.411 25.5872 142.997 25.065C141.262 29.9281 140.011 34.3615 139.23 38.3768C138.132 40.0626 136.891 41.294 135.502 42.0559H135.482C134.504 42.4576 133.54 42.511 132.589 42.2165C133.473 41.1587 134.283 39.9403 135.019 38.5612C135.769 37.1955 136.285 35.9171 136.567 34.7255C136.848 33.5338 136.935 32.5563 136.828 31.7931C136.734 31.0166 136.5 30.3539 136.125 29.8049L136.085 29.7243C135.884 29.4431 135.623 29.1956 135.301 28.9814C134.846 28.6735 134.316 28.4992 133.713 28.459H133.653H133.613C132.689 28.4322 131.691 28.7332 130.619 29.3624C129.561 29.9783 128.495 30.9559 127.424 32.2948C126.861 33.0044 126.453 33.741 126.198 34.5042C124.808 35.9218 123.91 37.6284 123.5 39.6229C121.128 42.9775 119.197 45.322 117.719 46.6345C117.705 46.6345 117.692 46.6411 117.679 46.6545C117.331 46.9491 117.055 47.0231 116.855 46.8758C116.694 46.7687 116.567 46.5344 116.473 46.1728C116.38 45.8247 116.332 45.2756 116.332 44.5258C116.345 43.7626 116.426 42.8656 116.573 41.8347C116.721 40.7903 116.982 39.4584 117.357 37.8383C117.745 36.2048 118.241 34.4102 118.844 32.4553C127.485 20.6997 131.262 13.4163 130.177 10.6046C130.177 10.5644 130.171 10.5373 130.157 10.5239V10.504L130.137 10.484C129.829 9.80114 129.373 9.47311 128.77 9.49989C127.846 9.56684 126.681 10.5707 125.274 12.5121C123.881 14.4402 122.461 16.9715 121.014 20.1045C119.581 23.2242 118.315 26.5177 117.216 29.9855C117.216 29.9721 117.21 29.9589 117.196 29.9455V29.9248V29.9048C117.116 29.3291 116.895 28.9279 116.533 28.7002C115.864 28.2584 114.645 28.5059 112.877 29.4431C111.55 30.1394 110.271 31.204 109.039 32.6367C107.806 34.0559 106.794 35.5621 106.004 37.1554C105.746 37.6849 105.52 38.2021 105.321 38.7095C105.035 39.1767 104.767 39.6104 104.557 39.9271C101.718 44.2385 99.253 46.7953 97.1632 47.5987H97.1433C97.1031 47.6121 97.0694 47.6187 97.0426 47.6187C96.614 47.2705 97.2365 44.3651 98.911 38.9023C99.5138 36.9341 100.378 34.2227 101.503 30.7683C101.57 30.5675 101.671 30.2534 101.805 29.8249C101.939 29.3831 102.039 29.0616 102.106 28.8608H102.126C103.76 23.7997 104.719 20.7332 105 19.662C105.214 18.8319 105.388 17.8881 105.522 16.8303C105.67 15.7592 105.683 14.5408 105.562 13.1751C105.455 11.8094 105.133 10.7785 104.597 10.0822C104.115 9.45293 103.479 9.11831 102.689 9.07814C102.649 9.06475 102.588 9.05817 102.508 9.05817L102.508 9.05818ZM102.428 9.68045H102.508C102.749 9.69384 102.937 9.8015 103.071 10.0023C103.285 10.2969 103.405 10.7516 103.432 11.3675C103.472 11.97 103.419 12.7403 103.271 13.6775C103.124 14.6014 102.943 15.5584 102.729 16.5492C102.528 17.5266 102.24 18.6981 101.865 20.0638C101.49 21.4161 101.135 22.6485 100.8 23.7598C100.478 24.8577 100.083 26.1698 99.6146 27.6962C98.3688 27.6694 95.8772 27.9103 92.1397 28.4191C89.273 28.8074 87.2167 29.0483 85.9709 29.142C87.4578 26.6248 88.9648 24.2415 90.4919 21.9921C92.019 19.7293 93.526 17.6674 95.0129 15.8063C96.5132 13.9318 97.9134 12.4454 99.2128 11.3475C100.512 10.2362 101.584 9.68045 102.428 9.68045ZM129.494 10.7252C129.521 10.7252 129.547 10.7384 129.574 10.7652L129.594 10.7852C130.639 13.222 127.25 19.8361 119.426 30.6278L119.547 30.2667C120.324 27.8968 121.149 25.6409 122.019 23.4986C122.89 21.3429 123.7 19.5153 124.45 18.0157C125.2 16.5161 125.917 15.204 126.6 14.0793C127.297 12.9546 127.886 12.1243 128.369 11.5887C128.864 11.0398 129.24 10.752 129.494 10.7252L129.494 10.7252ZM133.513 29.1021H133.533C134.109 29.1021 134.584 29.2287 134.959 29.4831C135.2 29.6438 135.408 29.8517 135.582 30.1061C135.81 30.481 135.81 31.2843 135.582 32.5161C135.368 33.7345 134.939 35.0729 134.296 36.5324C133.452 38.447 132.427 40.1143 131.222 41.5335C131.195 41.5202 131.161 41.5004 131.121 41.4736C131.081 41.4334 131.047 41.4063 131.021 41.393C130.27 40.8306 129.661 40.1145 129.192 39.2442C128.723 38.3739 128.456 37.477 128.389 36.5531C128.791 36.1782 129.018 35.9702 129.072 35.9301C129.54 35.5686 129.829 35.0999 129.936 34.5242C130.043 33.9485 129.969 33.4864 129.715 33.1383C129.634 33.0178 129.534 32.9175 129.413 32.8372C129.989 31.8999 130.692 31.063 131.523 30.3266C132.367 29.5902 133.03 29.1824 133.513 29.1021H133.513ZM159.627 29.5131C159.676 29.5131 159.718 29.5171 159.755 29.5238V29.7443C159.634 30.802 158.723 32.1207 157.022 33.7007C155.334 35.2672 153.05 36.6467 150.17 37.8384L149.507 38.0788C150.07 37.2219 150.605 36.4861 151.114 35.8701C151.945 34.8392 152.783 33.9217 153.626 33.1184C154.484 32.3016 155.234 31.6727 155.877 31.2308C156.52 30.7756 157.122 30.4073 157.685 30.1261C158.261 29.8449 158.71 29.6706 159.032 29.6037C159.283 29.5435 159.481 29.5131 159.627 29.5131V29.5131ZM116.49 30.0101C116.522 30.0105 116.55 30.0154 116.573 30.0255H116.593V30.0454C116.66 30.4337 116.668 31.0832 116.614 31.9937C116.574 32.1142 116.52 32.2884 116.453 32.5161C116.399 32.7437 116.359 32.904 116.332 32.9977C116.078 33.9618 115.837 34.8858 115.609 35.7695C115.489 35.9302 115.221 36.278 114.806 36.8135C114.404 37.3491 114.115 37.7313 113.941 37.959C112.093 40.3824 110.371 42.136 108.777 43.2206C107.947 43.6758 107.391 43.7498 107.109 43.4418C106.801 43.0937 106.821 42.3637 107.169 41.2524C107.518 40.1277 108.208 38.8155 109.239 37.316C110.257 35.8298 111.329 34.4905 112.454 33.2989C113.579 32.0939 114.497 31.2306 115.207 30.7084C115.84 30.2398 116.268 30.0072 116.49 30.0101V30.0101ZM126.279 38.9223C126.386 39.1901 126.473 39.3915 126.54 39.5254C127.264 41.0518 128.395 42.1698 129.936 42.8795C128.717 43.9908 127.451 44.7603 126.138 45.1888C126.058 45.1754 125.951 45.1556 125.817 45.1289C125.428 45.0351 125.093 44.8674 124.812 44.6264C124.423 44.2248 124.249 43.6961 124.289 43.04C124.37 41.9287 125.033 40.5558 126.279 38.9223Z" fill="#2D343E"/>
<path d="M168.33 25.8519C167.66 25.5796 166.291 26.2285 166.026 26.8818C165.906 27.176 166.061 27.4437 166.439 27.5978C166.851 27.7652 167.209 27.6644 167.539 27.7987C167.872 27.9342 168.059 28.2565 168.467 28.4225C168.845 28.5766 169.143 28.4927 169.262 28.1985C169.528 27.5452 168.999 26.1242 168.33 25.8519ZM167.132 25.2406C167.163 24.9128 166.969 24.6138 166.7 24.5726C166.431 24.5314 166.187 24.7638 166.156 25.0915C166.125 25.4193 166.319 25.7184 166.588 25.7595C166.857 25.8007 167.101 25.5684 167.132 25.2406ZM167.917 25.3559C168.206 25.3934 168.479 25.094 168.528 24.6874C168.577 24.2807 168.383 23.9208 168.094 23.8833C167.805 23.8459 167.532 24.1452 167.483 24.5518C167.434 24.9585 167.628 25.3186 167.917 25.3559ZM170.389 26.0734C170.168 25.9149 169.821 25.9942 169.614 26.2507C169.408 26.5071 169.42 26.8435 169.642 27.002C169.864 27.1606 170.21 27.0812 170.417 26.8248C170.623 26.5683 170.611 26.2319 170.389 26.0734ZM168.972 25.7849C169.204 25.9596 169.595 25.8375 169.843 25.5121C170.092 25.1866 170.104 24.7812 169.871 24.6064C169.639 24.4316 169.248 24.5538 169 24.8793C168.751 25.2047 168.739 25.6102 168.972 25.7849Z" fill="#2D343E"/>
</svg>
