<svg width="150" height="140" viewBox="0 0 150 140" fill="none" xmlns="http://www.w3.org/2000/svg">
<path d="M74.3503 5.8478C72.978 5.86099 71.6851 6.45114 70.7997 7.47813L12.5287 74.8605L15.1861 76.8626L17.847 78.8674L74.4219 13.434L133.223 78.9105L138.457 74.8144L77.931 7.41741C77.0267 6.40608 75.7106 5.84368 74.3503 5.8478Z" fill="#F57C00"/>
<path d="M73.4442 60.7583C73.7659 60.6573 74.174 60.1644 74.1951 59.8518C74.6669 52.3121 67.9964 42.2608 65.5941 38.905C63.6603 39.6244 61.7785 40.7873 60.0413 42.5595C60.0413 42.5595 56.5719 44.7325 55.341 55.2908C61.8301 63.1343 69.8933 61.8517 73.4442 60.7583Z" fill="#F57C00"/>
<path d="M99.1789 47.3754L88.5482 44.9536C88.5482 44.9536 88.2452 42.5597 85.2307 41.5761C83.0334 40.8574 75.4626 36.7962 68.0137 38.2306C70.83 42.2315 77.0948 52.0935 76.5995 59.9816C76.5257 61.2219 75.4694 62.5033 74.1994 62.895C72.9786 63.2742 70.7876 63.799 68.1247 63.799C64.2666 63.799 59.4208 62.6916 55.0553 58.4341C54.9697 59.787 54.9208 61.2504 54.9121 62.8338C54.8632 71.0007 43.7483 78.7441 43.7483 78.7441L42.2679 81.6076C45.2894 87.7137 50.0261 92.9327 55.9066 96.7204C56.1732 92.8198 57.2212 89.7642 58.435 87.4679C60.7338 83.1065 63.9576 80.686 65.6028 79.6617C65.9566 70.6601 69.087 68.0293 71.6986 67.4278C72.5008 67.2423 73.3464 67.4021 74.0117 67.8682C74.7688 68.3956 75.2557 69.2661 75.3052 70.2006C75.4394 72.6201 76.9717 74.3187 77.6982 74.9933C78.8764 75.0956 80.0011 75.2698 81.0598 75.5093L81.1571 74.6605L81.9663 67.3268C82.1035 66.089 83.2954 65.0456 84.6148 64.8691C89.6251 64.188 100.788 61.418 101.514 50.162C101.597 48.9205 100.474 47.6719 99.1789 47.3754ZM82.6164 49.9901C81.8663 49.9901 81.2573 49.4241 81.2573 48.7233C81.2573 48.0225 81.8663 47.4566 82.6164 47.4566C83.3681 47.4566 83.9742 48.0225 83.9742 48.7233C83.9714 49.4229 83.3667 49.9901 82.6164 49.9901Z" fill="#F57C00"/>
<path d="M88.5512 83.5046C88.1493 80.3134 83.323 77.6838 77.0864 77.3103C77.0864 77.3103 73.7751 74.9343 73.5528 70.8331C73.5163 70.2122 73.0191 69.5951 72.3733 69.7438C70.7068 70.1265 67.8773 72.1233 67.7363 81.2428C67.7363 81.2428 58.6724 85.5107 58.0174 97.8149C63.8275 101.073 70.5979 102.984 77.8246 103.095L77.7436 101.333C77.7136 100.712 78.1963 100.031 78.8188 99.8133L86.5393 97.1109C86.5393 97.1109 90.1599 97.3004 91.6659 94.7634C92.4284 93.4846 93.1361 92.5909 93.6573 92.0151C94.0838 91.5414 94.0771 90.8643 93.5998 90.4315C92.0225 89.0105 88.8515 85.8894 88.5512 83.5046ZM83.9715 86.5934C83.2227 86.5934 82.615 86.029 82.615 85.3277C82.615 84.6249 83.2227 84.0592 83.9715 84.0592C84.7229 84.0592 85.3306 84.6249 85.3306 85.3277C85.3308 86.0288 84.7231 86.5934 83.9715 86.5934Z" fill="#F57C00"/>
<path d="M50.862 104.562C50.1813 104.54 49.3636 104.846 48.4082 105.481C47.4648 106.105 46.4736 106.952 45.4347 108.022C44.3957 109.091 43.291 110.361 42.1207 111.831C40.9624 113.29 39.8342 114.811 38.7356 116.393C37.6369 117.964 36.5498 119.607 35.475 121.322C33.4569 121.411 32.2211 121.234 31.7673 120.788C31.6001 120.621 31.5525 120.398 31.6242 120.119C31.672 119.963 31.6002 119.863 31.4092 119.818C31.242 119.774 31.1344 119.841 31.0866 120.019C30.9791 120.465 31.0685 120.838 31.3551 121.139C31.8208 121.618 32.8661 121.857 34.4902 121.857H35.1347C31.8865 127.104 29.7554 131.17 28.7403 134.055C28.6806 134.2 28.74 134.306 28.9191 134.373C29.0863 134.429 29.2056 134.373 29.2773 134.206C30.3759 131.109 32.5436 126.982 35.7798 121.824C36.8665 121.757 38.8366 121.545 41.6906 121.189C44.7955 120.788 46.939 120.587 48.1213 120.587L47.5844 122.192C45.9961 126.982 44.9214 130.502 44.3602 132.752C43.8108 135.002 43.775 136.429 44.2526 137.03C44.4318 137.253 44.6763 137.364 44.9868 137.364C45.3689 137.364 45.7811 137.286 46.2229 137.13H46.2407H46.2585L46.2764 137.113H46.2942C47.0704 136.835 47.8947 136.317 48.7664 135.559C49.6501 134.802 50.4261 134.028 51.0949 133.237C51.6488 132.572 52.1976 131.851 52.7433 131.095C52.6958 131.287 52.6522 131.478 52.6173 131.666C52.3785 133.025 52.6771 133.878 53.5131 134.223C54.3251 134.557 55.3998 134.295 56.7373 133.437C56.7492 133.437 56.7551 133.432 56.7551 133.421C56.7551 133.41 56.7617 133.404 56.7736 133.404C56.7855 133.393 56.7972 133.387 56.8092 133.387C56.8211 133.387 56.827 133.381 56.827 133.37H56.8448C58.3017 132.412 59.8486 130.931 61.4846 128.925C61.6398 128.736 61.8844 128.441 62.2187 128.04C60.8574 133.588 60.8215 136.64 62.1112 137.197C62.2545 137.264 62.4215 137.297 62.6125 137.297C63.1738 137.297 63.8788 136.952 64.7266 136.261C64.7386 136.261 64.7444 136.25 64.7444 136.228L64.7622 136.211C65.9781 135.225 67.5299 133.512 69.402 131.106C69.362 131.509 69.3423 131.923 69.3479 132.351C69.3599 133.042 69.5627 133.632 69.9568 134.123C70.3389 134.602 70.8587 134.919 71.5154 135.075C71.7782 135.131 72.0351 135.159 72.2859 135.159C73.7428 135.159 75.2231 134.473 76.7278 133.103C77.0621 133.159 77.3725 133.187 77.6591 133.187C78.6145 133.187 79.5523 132.958 80.4718 132.502C81.522 131.993 82.4841 131.215 83.3591 130.172C82.761 133.424 82.779 135.546 83.4275 136.512C83.6903 136.902 84.0365 137.097 84.4664 137.097H84.5021C84.6812 137.097 84.9081 137.058 85.1828 136.98C85.2305 136.98 85.2664 136.974 85.2903 136.963C85.6724 136.818 86.1915 136.256 86.8483 135.276C87.1267 134.868 87.3953 134.45 87.6571 134.026C87.5853 135.264 87.8327 136.118 88.407 136.579C88.9683 137.025 89.6191 137.28 90.3595 137.347H90.3773H90.4314C90.4672 137.358 90.4907 137.364 90.5026 137.364H90.5567H90.6821C93.2838 137.364 97.1378 134.752 102.237 129.545C102.212 129.604 102.166 129.711 102.146 129.761C102.098 129.894 102.063 130 102.039 130.078H102.02C101.602 131.215 101.382 132.363 101.358 133.521C101.334 134.68 101.573 135.654 102.074 136.445C102.504 137.036 103.101 137.331 103.865 137.331C104.176 137.331 104.529 137.225 104.923 137.013C104.97 136.991 105.006 136.969 105.03 136.946C106.439 136.111 108.248 134.061 110.457 130.797C110.577 130.619 110.732 130.379 110.923 130.078C111.126 129.778 111.257 129.583 111.317 129.494C111.914 128.547 112.302 127.917 112.481 127.605C112.577 127.461 112.542 127.344 112.374 127.255C112.279 127.199 112.183 127.204 112.087 127.271C112.052 127.293 112.022 127.321 111.998 127.355C111.639 127.968 111.24 128.608 110.798 129.276V129.293C109.771 130.886 108.708 132.368 107.609 133.738C106.511 135.108 105.561 136.033 104.761 136.512C104.331 136.545 104.021 136.428 103.83 136.161C103.364 135.515 103.441 134.189 104.062 132.184C104.695 130.179 105.627 128.023 106.857 125.717C106.988 125.483 107.15 125.182 107.341 124.815C107.544 124.436 107.681 124.174 107.752 124.029C108.123 123.339 108.374 122.86 108.505 122.592C108.648 122.314 108.762 122.03 108.845 121.74C108.929 121.451 108.935 121.245 108.863 121.122C108.792 121 108.654 120.866 108.451 120.721C108.248 120.565 107.992 120.52 107.681 120.587C106.499 120.888 104.899 123.367 102.88 128.023C102.878 128.031 102.826 128.15 102.815 128.176C97.2257 134.058 93.1375 136.952 90.5567 136.846H90.5026H90.467C90.4551 136.846 90.4434 136.841 90.4314 136.829H90.4129C90.2935 136.807 90.1983 136.718 90.1267 136.562C89.8401 136.005 89.8759 135.063 90.2342 133.738C90.6044 132.412 91.2852 130.981 92.2764 129.444C92.7063 129.31 93.136 129.16 93.5659 128.992C96.1454 128.001 98.2348 126.82 99.835 125.45C101.447 124.069 102.319 122.86 102.45 121.824C102.474 121.713 102.474 121.612 102.45 121.523V121.49V121.423C102.45 121.411 102.444 121.401 102.433 121.389V121.373V121.356C102.373 121 102.199 120.732 101.913 120.554C101.029 119.975 99.4111 120.22 97.0586 121.289C94.4076 122.503 92.1988 124.369 90.4314 126.887C90.3359 127.021 90.2041 127.221 90.037 127.488C90.0131 127.533 89.882 127.744 89.6432 128.123L89.3206 128.675C89.1773 128.942 88.998 129.31 88.783 129.778C88.7711 129.789 88.7652 129.806 88.7652 129.828C88.7652 129.839 88.7593 129.85 88.7474 129.861C88.7116 129.895 88.6933 129.939 88.6933 129.995C88.6455 130.095 88.5862 130.245 88.5145 130.446C88.5026 130.502 88.4785 130.58 88.4426 130.68C88.3949 130.78 88.359 130.853 88.3351 130.897C88.2515 131.12 88.2039 131.265 88.192 131.332C88.1203 131.532 88.0727 131.683 88.0489 131.783L87.9948 131.983C87.9709 132.061 87.9533 132.123 87.9413 132.167C87.9375 132.178 87.9341 132.209 87.9304 132.225C87.5597 132.902 87.1725 133.579 86.7593 134.256C86.2697 135.058 85.8334 135.654 85.4513 136.044C85.0691 136.445 84.777 136.567 84.574 136.411C83.9769 135.81 84.3232 132.841 85.6129 127.505C86.4011 124.219 87.4816 120.883 88.8549 117.496C89.5714 117.351 90.6703 117.111 92.1511 116.777C92.1749 116.766 92.2167 116.755 92.2764 116.744C93.4825 116.476 94.6289 116.232 95.7156 116.009C96.8143 115.775 97.9366 115.557 99.083 115.357C100.229 115.156 101.28 115.017 102.235 114.939C103.203 114.85 104.093 114.822 104.905 114.856C105.729 114.878 106.421 115.006 106.983 115.24C107.556 115.474 107.961 115.803 108.2 116.226C108.284 116.382 108.409 116.421 108.576 116.343C108.743 116.254 108.786 116.137 108.702 115.992C108.678 115.948 108.648 115.897 108.613 115.841C107.729 114.504 105.364 114.054 101.519 114.488C99.6202 114.7 96.4496 115.296 92.0072 116.276C90.8608 116.532 89.8879 116.744 89.0878 116.911C90.0909 114.505 91.1297 112.333 92.2045 110.394C92.3358 110.194 92.3241 109.982 92.1689 109.759C92.0375 109.547 91.8406 109.442 91.5778 109.442C90.9808 109.442 90.5562 109.698 90.3054 110.21C89.2426 112.349 88.2038 114.711 87.1887 117.295C82.9613 118.109 80.3522 118.203 79.361 117.579C79.0505 117.379 78.8719 117.106 78.8241 116.76C78.8121 116.694 78.7763 116.638 78.7166 116.594C78.6449 116.549 78.5732 116.532 78.5015 116.543C78.3224 116.565 78.2448 116.66 78.2687 116.828C78.3403 117.318 78.6032 117.708 79.0569 117.997C79.6182 118.354 80.4777 118.532 81.636 118.532C82.878 118.532 84.6511 118.315 86.9559 117.88C85.41 121.927 84.2947 125.615 83.5981 128.956C82.6197 130.359 81.5132 131.383 80.2746 132.017H80.2568C79.385 132.351 78.5255 132.396 77.6777 132.151C78.4658 131.271 79.1877 130.257 79.8445 129.109C80.5132 127.973 80.973 126.909 81.2238 125.918C81.4746 124.927 81.5521 124.113 81.4566 123.478C81.373 122.832 81.1643 122.281 80.83 121.824L80.7944 121.757C80.6152 121.523 80.3824 121.317 80.0958 121.139C79.6898 120.883 79.2176 120.738 78.6803 120.704H78.6268H78.5912C77.7673 120.682 76.8771 120.932 75.9217 121.456C74.9783 121.968 74.0288 122.782 73.0735 123.896C72.5719 124.486 72.2081 125.099 71.9812 125.734C70.7417 126.913 69.9407 128.333 69.576 129.993C67.461 132.784 65.74 134.735 64.4219 135.827C64.41 135.827 64.3982 135.832 64.3863 135.843C64.0758 136.088 63.8306 136.15 63.6515 136.027C63.5082 135.938 63.3954 135.743 63.3118 135.442C63.2282 135.153 63.1858 134.696 63.1858 134.072C63.1977 133.437 63.2695 132.691 63.4008 131.833C63.5322 130.964 63.765 129.856 64.0994 128.508C64.4457 127.149 64.8878 125.656 65.4252 124.029C73.1276 114.248 76.4952 108.188 75.528 105.849C75.528 105.816 75.5221 105.793 75.5101 105.782V105.765L75.4923 105.749C75.2177 105.18 74.8114 104.908 74.274 104.93C73.45 104.985 72.4112 105.821 71.1573 107.436C69.9154 109.04 68.6496 111.146 67.3599 113.753C66.0821 116.349 64.9532 119.089 63.974 121.974C63.974 121.963 63.9682 121.952 63.9562 121.941V121.924V121.907C63.8846 121.428 63.6876 121.094 63.3652 120.905C62.7681 120.537 61.6817 120.743 60.1053 121.523C58.9231 122.102 57.7825 122.988 56.6839 124.18C55.5853 125.361 54.6833 126.614 53.9788 127.94C53.7486 128.38 53.5474 128.811 53.37 129.233C53.1151 129.622 52.8759 129.982 52.6892 130.246C50.1576 133.833 47.9606 135.96 46.0976 136.629H46.0798C46.044 136.64 46.014 136.645 45.9901 136.645C45.608 136.356 46.1629 133.938 47.6556 129.393C48.193 127.756 48.9632 125.5 49.9663 122.626C50.026 122.458 50.116 122.197 50.2354 121.841C50.3548 121.473 50.4442 121.206 50.5039 121.038H50.5217C51.9786 116.828 52.8329 114.276 53.0837 113.385C53.2748 112.694 53.43 111.909 53.5494 111.029C53.6807 110.138 53.6925 109.124 53.585 107.988C53.4895 106.851 53.2025 105.994 52.7248 105.414C52.2949 104.891 51.7283 104.612 51.0237 104.579C50.9879 104.568 50.9337 104.562 50.8621 104.562L50.862 104.562ZM50.7908 105.08H50.862C51.077 105.091 51.2446 105.181 51.364 105.348C51.5551 105.593 51.662 105.971 51.6859 106.484C51.7217 106.985 51.6741 107.626 51.5427 108.406C51.4114 109.174 51.2503 109.971 51.0593 110.795C50.8801 111.608 50.6232 112.583 50.2888 113.719C49.9544 114.844 49.6382 115.87 49.3396 116.794C49.053 117.708 48.7009 118.8 48.2829 120.07C47.1723 120.047 44.9512 120.248 41.6194 120.671C39.0639 120.994 37.2307 121.194 36.1202 121.272C37.4457 119.178 38.7891 117.195 40.1504 115.324C41.5118 113.441 42.8552 111.725 44.1807 110.177C45.5182 108.617 46.7664 107.381 47.9247 106.467C49.0831 105.542 50.0385 105.08 50.7908 105.08ZM74.9191 105.949C74.9429 105.949 74.9664 105.96 74.9903 105.983L75.0081 105.999C75.9395 108.027 72.9182 113.53 65.9442 122.509L66.0518 122.208C66.7444 120.236 67.4794 118.359 68.2556 116.577C69.0318 114.783 69.7537 113.263 70.4224 112.015C71.0911 110.767 71.7302 109.676 72.3393 108.74C72.9602 107.804 73.4859 107.113 73.9158 106.668C74.3576 106.211 74.6922 105.972 74.9191 105.949L74.9191 105.949ZM78.5014 121.239H78.5193C79.0328 121.239 79.4566 121.345 79.791 121.556C80.006 121.69 80.1912 121.863 80.3464 122.075C80.5494 122.387 80.5494 123.055 80.3464 124.08C80.1553 125.093 79.7732 126.207 79.2 127.421C78.4477 129.014 77.534 130.402 76.4593 131.582C76.4354 131.571 76.4054 131.555 76.3696 131.533C76.3337 131.499 76.3037 131.477 76.2798 131.465C75.6111 130.998 75.0679 130.402 74.6499 129.678C74.232 128.954 73.9933 128.207 73.9336 127.439C74.2918 127.127 74.4946 126.954 74.5424 126.92C74.9604 126.619 75.2173 126.23 75.3128 125.751C75.4084 125.272 75.3425 124.887 75.1156 124.597C75.044 124.497 74.9546 124.414 74.8472 124.347C75.3606 123.567 75.9873 122.871 76.7277 122.258C77.4801 121.645 78.0716 121.306 78.5015 121.239H78.5014ZM101.781 121.581C101.824 121.581 101.862 121.585 101.895 121.59V121.774C101.787 122.654 100.975 123.751 99.4589 125.065C97.9542 126.369 95.9183 127.517 93.3508 128.508L92.7598 128.708C93.2614 127.995 93.7387 127.383 94.1925 126.87C94.9329 126.013 95.6796 125.249 96.4319 124.581C97.1962 123.901 97.8646 123.378 98.4378 123.01C99.011 122.632 99.5484 122.325 100.05 122.091C100.563 121.857 100.964 121.712 101.25 121.657C101.474 121.606 101.651 121.581 101.781 121.581V121.581ZM63.3268 121.995C63.3551 121.995 63.3798 121.999 63.4007 122.008H63.4186V122.024C63.4783 122.347 63.4849 122.888 63.437 123.645C63.4012 123.745 63.3529 123.89 63.2932 124.08C63.2455 124.269 63.2096 124.403 63.1857 124.481C62.9588 125.283 62.7443 126.051 62.5413 126.787C62.4338 126.92 62.1951 127.21 61.8249 127.655C61.4667 128.101 61.2097 128.419 61.0545 128.608C59.4065 130.625 57.8721 132.084 56.451 132.986C55.7106 133.365 55.215 133.426 54.9642 133.17C54.6895 132.881 54.7071 132.273 55.0176 131.349C55.3281 130.413 55.9431 129.321 56.8626 128.073C57.7702 126.837 58.7255 125.723 59.7286 124.731C60.7317 123.728 61.5502 123.01 62.1831 122.576C62.7473 122.186 63.1282 121.992 63.3268 121.995V121.995ZM72.053 129.41C72.1485 129.633 72.2261 129.8 72.2858 129.912C72.9307 131.182 73.9395 132.112 75.3128 132.702C74.2261 133.627 73.098 134.267 71.9277 134.624C71.856 134.613 71.7601 134.596 71.6407 134.574C71.2944 134.496 70.9957 134.356 70.745 134.156C70.3986 133.822 70.2434 133.382 70.2793 132.836C70.3509 131.911 70.9424 130.769 72.053 129.41Z" fill="#F57C00"/>
<path d="M109.544 118.532C108.957 118.311 107.732 118.868 107.485 119.418C107.373 119.665 107.504 119.888 107.836 120.013C108.197 120.149 108.516 120.061 108.805 120.17C109.097 120.28 109.256 120.547 109.614 120.682C109.946 120.807 110.211 120.734 110.322 120.486C110.57 119.937 110.131 118.753 109.544 118.532ZM108.496 118.033C108.53 117.758 108.365 117.51 108.127 117.478C107.89 117.446 107.67 117.643 107.636 117.918C107.602 118.193 107.767 118.441 108.004 118.473C108.242 118.504 108.462 118.307 108.496 118.033ZM109.188 118.121C109.443 118.149 109.691 117.896 109.742 117.555C109.794 117.214 109.629 116.915 109.374 116.887C109.119 116.858 108.871 117.112 108.82 117.453C108.769 117.793 108.934 118.093 109.188 118.121ZM111.361 118.696C111.169 118.566 110.86 118.636 110.672 118.852C110.485 119.069 110.489 119.351 110.682 119.481C110.875 119.611 111.183 119.541 111.371 119.325C111.559 119.108 111.554 118.826 111.361 118.696ZM110.113 118.469C110.315 118.613 110.663 118.507 110.889 118.232C111.116 117.957 111.135 117.617 110.932 117.474C110.73 117.33 110.382 117.436 110.156 117.711C109.929 117.986 109.91 118.325 110.113 118.469Z" fill="#F57C00"/>
</svg>
